<svg xmlns="http://www.w3.org/2000/svg" width="172" height="60.966" viewBox="0 0 172 60.966">
  <g id="Group_7" data-name="Group 7" transform="translate(-839.44 289.314)">
    <path id="Path_5" data-name="Path 5" d="M1011.037-272.35v-8.736a1.671,1.671,0,0,0-1.69-1.685h-3.688a1.606,1.606,0,0,0-1.618,1.628v11.349h4.674c2.4,0,2.321-2.555,2.321-2.555" transform="translate(-104.045 -4.136)" fill="#fff"/>
    <path id="Path_6" data-name="Path 6" d="M1224.547-152.267a.688.688,0,0,0-.506-.21.685.685,0,0,0-.5.21.7.7,0,0,0-.208.505.689.689,0,0,0,.209.5.685.685,0,0,0,.5.209.692.692,0,0,0,.506-.209.692.692,0,0,0,.209-.5.7.7,0,0,0-.209-.505" transform="translate(-242.659 -86.495)" fill="#fff"/>
    <path id="Path_7" data-name="Path 7" d="M1249.182-152.267a.686.686,0,0,0-.5-.21.681.681,0,0,0-.5.21.7.7,0,0,0-.208.505.689.689,0,0,0,.208.5.685.685,0,0,0,.5.209.7.7,0,0,0,.506-.209.691.691,0,0,0,.208-.5.693.693,0,0,0-.21-.505" transform="translate(-258.232 -86.495)" fill="#fff"/>
    <g id="Group_5" data-name="Group 5" transform="translate(975.391 -238.626)">
      <path id="Path_8" data-name="Path 8" d="M1209.958-151.538h-.979v7.366s-.077.648.521.648h3.479v-.95h-3.02Z" transform="translate(-1208.975 151.538)" fill="#fff"/>
      <rect id="Rectangle_8" data-name="Rectangle 8" width="0.942" height="5.979" transform="translate(5.523 2.036)" fill="#fff"/>
      <path id="Path_9" data-name="Path 9" d="M1232.7-141.924,1230.812-146H1229.8l2.765,5.979h.263l2.747-5.979h-1.015Z" transform="translate(-1222.139 148.04)" fill="#fff"/>
      <rect id="Rectangle_9" data-name="Rectangle 9" width="0.943" height="5.979" transform="translate(14.586 2.036)" fill="#fff"/>
      <path id="Path_10" data-name="Path 10" d="M1261.024-146.064a2.164,2.164,0,0,0-1.208-.346,2.561,2.561,0,0,0-1.232.306,3.109,3.109,0,0,0-.847.7v-.859h-.943v5.979h.943V-142.5a7.7,7.7,0,0,1,.1-1.55,2,2,0,0,1,.674-1.054,1.763,1.763,0,0,1,1.152-.423,1.435,1.435,0,0,1,.9.266,1.4,1.4,0,0,1,.463.811,6.385,6.385,0,0,1,.081,1.312v2.857h.942v-3.074a4.726,4.726,0,0,0-.248-1.777A2.072,2.072,0,0,0,1261.024-146.064Z" transform="translate(-1239.201 148.297)" fill="#fff"/>
      <path id="Path_11" data-name="Path 11" d="M1281.409-146.261h-.684v.848a3.212,3.212,0,0,0-.947-.717,2.876,2.876,0,0,0-1.257-.28,3.089,3.089,0,0,0-1.542.416,3.053,3.053,0,0,0-1.143,1.135,3.041,3.041,0,0,0-.415,1.545,3.01,3.01,0,0,0,.4,1.519,2.913,2.913,0,0,0,1.125,1.1,3.153,3.153,0,0,0,1.555.409,3.161,3.161,0,0,0,1.334-.294,2.928,2.928,0,0,0,.891-.643v.036a3.081,3.081,0,0,1-.213,1.339,1.655,1.655,0,0,1-.71.674,2.62,2.62,0,0,1-1.245.271,2.687,2.687,0,0,1-1.253-.265,2.081,2.081,0,0,1-.817-.813l-.027-.049h-1.02l.064.138a3.476,3.476,0,0,0,.71,1.066,2.8,2.8,0,0,0,1,.587,4.141,4.141,0,0,0,1.374.217,3.48,3.48,0,0,0,1.794-.445,2.413,2.413,0,0,0,1.061-1.277,5.469,5.469,0,0,0,.219-1.815V-145.9S1281.7-146.261,1281.409-146.261Zm-1.244,4.493a2.186,2.186,0,0,1-1.59.589,2.2,2.2,0,0,1-1.592-.595,2.014,2.014,0,0,1-.61-1.5,2.212,2.212,0,0,1,.3-1.118,2.144,2.144,0,0,1,.817-.809,2.277,2.277,0,0,1,1.131-.293,2.2,2.2,0,0,1,1.089.285,2,2,0,0,1,.778.773,2.242,2.242,0,0,1,.276,1.118A2.086,2.086,0,0,1,1280.166-141.768Z" transform="translate(-1250.975 148.297)" fill="#fff"/>
    </g>
    <path id="Path_12" data-name="Path 12" d="M986.216-256.6l.348-.271,0,0,22.954-18.009a4.617,4.617,0,0,0,1.9-3.247,5.456,5.456,0,0,0-1.36-3.857v0A21.009,21.009,0,0,0,996-288.7c-5.787-.476-11.37.534-16.333,4.428-4.6,3.606-12.1,15.587-4.872,27.516l-2.148,1.623a.5.5,0,0,1-.656-.06c-.207-.208-.411-.418-.616-.626-2.63-2.684-5.038-5.4-7.394-7.894a.435.435,0,0,1,.063-.715,27.19,27.19,0,0,0,3.415-3.113,10.736,10.736,0,0,0,2.9-7.631,10.359,10.359,0,0,0-1.934-6.221,11.769,11.769,0,0,0-5.114-3.958,18.913,18.913,0,0,0-4.988-1.313,42.318,42.318,0,0,0-5.058-.295h-.141s-7.939-.045-10.283.027h-.005l-.153.005h-.036v0a2.789,2.789,0,0,0-2.547,3.047,2.9,2.9,0,0,0,2.547,3.036c.019,0,.036.008.055.009l1.12.023c.153,0,.414.009.414.447v25.643c0,.26-.338.389-.507.067-7.41-14.1-15.184-28.877-15.722-29.859a2.43,2.43,0,0,0-2.159-1.372h0c-.622,0-1.519.3-2.27,1.711-.167.312-.339.618-.357.649L907.576-254.19s-.457.567-.457-.1c0-.864,0-13.223,0-13.223a3.4,3.4,0,0,0-3.5-3.459h-5.388c-.083,0-.16.015-.248.015H881.158a2.164,2.164,0,0,1-2.3-2.137c-.023-.23-.013-.583-.013-.583v-11.544a1.672,1.672,0,0,0-1.691-1.685H873.47a1.606,1.606,0,0,0-1.618,1.628v26.953a4.571,4.571,0,0,1,1.316,3.213,4.586,4.586,0,0,1-4.586,4.586A4.585,4.585,0,0,1,864-255.112a4.585,4.585,0,0,1,4.586-4.586,4.59,4.59,0,0,1,1.233.173,13.457,13.457,0,0,0-1.934-3.5c-1.64-2.184-4.521-4.566-8.806-7.284-4.236-2.69-5.6-3.651-5.985-3.968a8.593,8.593,0,0,1-2.051-2.334,4.258,4.258,0,0,1-.5-2,3.31,3.31,0,0,1,1.354-2.7,5.828,5.828,0,0,1,3.856-1.2,7.48,7.48,0,0,1,3.506.824,7.537,7.537,0,0,1,1.106.727c.19.155.383.38.583.546,2.6,2.152,6.029-.191,7.521-1.435.167-.139.31-.266.424-.369a.366.366,0,0,0,.058-.566l-.288-.286-.482-.476a18.364,18.364,0,0,0-3.871-3.278v0a13.726,13.726,0,0,0-1.463-.853l-.075-.043a.415.415,0,0,0-.038-.018l-.018-.01-.019-.008a1.921,1.921,0,0,0-.29-.123,15.515,15.515,0,0,0-6.559-1.435,15.038,15.038,0,0,0-6.428,1.389,11.4,11.4,0,0,0-4.712,3.907A9.771,9.771,0,0,0,843-278.445a10.59,10.59,0,0,0,2.822,7.07c1.063,1.258,3.575,3.165,7.684,5.833,3.807,2.467,6.444,4.581,7.837,6.282a5.045,5.045,0,0,1,1.325,3.215,4.672,4.672,0,0,1-.876,2.7,6.293,6.293,0,0,1-2.658,2.115,9.426,9.426,0,0,1-3.936.837c-2.692,0-4.941-1.5-7.332-4.154-2.249-2.5-5.655-1.141-7.31-.288l-.821.425-.18.092-.078.04-.034.018.019.029.067.106.094.146.06.095.512.8A20.584,20.584,0,0,0,847.144-246a17.09,17.09,0,0,0,8.5,2.156,15.756,15.756,0,0,0,10.395-3.584,13.305,13.305,0,0,0,2.764-3.106c.24.235.464.447.653.618l3.832,3.372a3.854,3.854,0,0,0,3,.7c1.688-.255,2.441-1.624,2.549-3.349.02-.316.031-.676.029-1.086,0-.028,0-.053,0-.082l-.026-11.892c0-2.351,1.225-2.351,1.883-2.351h14.033c5.92,0,5.36,5.277,5.36,5.277v9.267c0,.067.01.3.011.375a8.27,8.27,0,0,0,.124,1.094c0,.019,0,.037,0,.057a5.6,5.6,0,0,0,5.432,5.066,5.252,5.252,0,0,0,3.669-1.471c.084-.071.173-.127.256-.2,1.654-1.541,3.8-5.624,3.8-5.626l3.843-7.192a1.076,1.076,0,0,1,.815-.524h14.94a1.6,1.6,0,0,1,1.055.42,3.859,3.859,0,0,1,.716.956l5.188,9.507s1.882,4.086,6.258,4.086c2.94,0,4.845-2.071,5.3-5.134.044-.2.071-1.025.071-1.025l.023.146v0c0-1.01-.016-30.239-.016-30.239s0-.077,0-.209c0-.528.31-.529.456-.529h.657c1.01,0,2.132.042,3.335.125a11.355,11.355,0,0,1,3.189.682,5.423,5.423,0,0,1,2.627,1.869,4.825,4.825,0,0,1,.915,2.99,6.61,6.61,0,0,1-.63,3.174,8.082,8.082,0,0,1-1.6,2.054,13.853,13.853,0,0,1-2.817,1.884l-.13.068c-.322.17-.621.329-.913.449a2.6,2.6,0,0,0-1.592,1.855,3.151,3.151,0,0,0,.628,2.655c4.73,5.3,8.317,9.306,10.665,11.9l1.177,1.3c.76.837,1.318,1.4,1.7,1.835a2.6,2.6,0,0,0,2.4.973c1.027-.138,6.976-4.513,6.976-4.513l.193-.139a.24.24,0,0,1,.343.013c.039.042.084.078.126.117a18.649,18.649,0,0,0,11.926,5.252,23.129,23.129,0,0,0,13.306-3.094,25.629,25.629,0,0,0,5.721-4.674l.834-.878s.28-.271.01-.474c-.185-.138-.455-.358-.864-.682-1.657-1.31-4.65-3.046-7.7-.75-.317.238-.627.455-.935.665a14.724,14.724,0,0,1-7.286,2.026,12.694,12.694,0,0,1-8.121-2.51C986.048-256.456,986.216-256.6,986.216-256.6Zm-55.8-8.115a.413.413,0,0,1-.107.013h-7.537c-2.009,0-1.186-1.36-1.186-1.36l4.012-7.507a.582.582,0,0,1,.13-.149c.1-.075.237-.1.367.148,1.158,2.235,2.961,5.566,4.48,8.408A.3.3,0,0,1,930.421-264.717Zm52.247,1.988-.948.743c-.24-.362-.454-.721-.646-1.078a11.37,11.37,0,0,1-1.117-8.039,12.275,12.275,0,0,1,4.769-7.638,15.851,15.851,0,0,1,10.135-3.15,11.994,11.994,0,0,1,6.17,2.444c1.483,1.086.255,2.108.255,2.108Z" transform="translate(0 0)" fill="#fff"/>
    <g id="Group_6" data-name="Group 6" transform="translate(931.974 -238.823)">
      <path id="Path_13" data-name="Path 13" d="M1092.921-151.841h-.943v2.147h-1.019v.838h1.019v5.141h.943v-5.141h1.578v-.838h-1.578Z" transform="translate(-1090.96 151.926)" fill="#fff"/>
      <path id="Path_14" data-name="Path 14" d="M1109.106-143.206a5.475,5.475,0,0,1-.107,1.387,1.449,1.449,0,0,1-.564.739,1.733,1.733,0,0,1-1.006.284,1.77,1.77,0,0,1-1.021-.291,1.406,1.406,0,0,1-.573-.787,5.71,5.71,0,0,1-.1-1.333V-146h-.943v2.882a4.77,4.77,0,0,0,.289,1.887,2.224,2.224,0,0,0,.886,1,2.806,2.806,0,0,0,1.468.358,2.768,2.768,0,0,0,1.461-.358,2.223,2.223,0,0,0,.88-.991,4.573,4.573,0,0,0,.291-1.843V-146h-.959Z" transform="translate(-1099.7 148.236)" fill="#fff"/>
      <path id="Path_15" data-name="Path 15" d="M1128.348-148.962a2.914,2.914,0,0,0-.874-.713,2.858,2.858,0,0,0-1.339-.314,2.987,2.987,0,0,0-2.188.917,3.032,3.032,0,0,0-.908,2.2,3.085,3.085,0,0,0,.9,2.234,2.946,2.946,0,0,0,2.174.92,2.994,2.994,0,0,0,1.323-.3,3.217,3.217,0,0,0,.911-.687v.835h.932v-8.211h-.932Zm-.586.532a2.212,2.212,0,0,1,.635,1.608,2.283,2.283,0,0,1-.283,1.136,2.075,2.075,0,0,1-.807.8,2.2,2.2,0,0,1-2.2,0,2.2,2.2,0,0,1-.809-.831,2.272,2.272,0,0,1-.3-1.121,2.262,2.262,0,0,1,.3-1.12,2.17,2.17,0,0,1,.8-.82,2.176,2.176,0,0,1,1.1-.291A2.116,2.116,0,0,1,1127.762-148.43Z" transform="translate(-1111.237 152.072)" fill="#fff"/>
      <path id="Path_16" data-name="Path 16" d="M1171.448-146.064a2.167,2.167,0,0,0-1.208-.346,2.562,2.562,0,0,0-1.232.306,3.131,3.131,0,0,0-.848.7v-.859h-.942v5.979h.942V-142.5a7.533,7.533,0,0,1,.1-1.55,2,2,0,0,1,.674-1.054,1.763,1.763,0,0,1,1.152-.423,1.434,1.434,0,0,1,.9.266,1.391,1.391,0,0,1,.463.812,6.7,6.7,0,0,1,.08,1.311v2.857h.943v-3.074a4.7,4.7,0,0,0-.249-1.777A2.069,2.069,0,0,0,1171.448-146.064Z" transform="translate(-1139.163 148.493)" fill="#fff"/>
      <path id="Path_17" data-name="Path 17" d="M1187.62-149.694v-2.147h-.943v2.147h-1.019v.838h1.019v5.141h.943v-5.141h1.577v-.838Z" transform="translate(-1150.819 151.926)" fill="#fff"/>
    </g>
    <path id="Path_18" data-name="Path 18" d="M1080.132-147.094a5.841,5.841,0,0,0-1.421-1.359c-.7-.516-.934-.706-1-.772a1.717,1.717,0,0,1-.369-.491,1.1,1.1,0,0,1-.1-.455.838.838,0,0,1,.27-.636.981.981,0,0,1,.711-.26,1.2,1.2,0,0,1,.63.172,2.107,2.107,0,0,1,.441.4l.774-.638a2.963,2.963,0,0,0-.745-.649,2.2,2.2,0,0,0-2.1-.033,1.859,1.859,0,0,0-.727.7,1.907,1.907,0,0,0-.259.98,2.051,2.051,0,0,0,.435,1.253,6.941,6.941,0,0,0,1.241,1.088,6.323,6.323,0,0,1,1.325,1.234,1.232,1.232,0,0,1,.249.714,1.173,1.173,0,0,1-.168.6,1.209,1.209,0,0,1-.489.454,1.445,1.445,0,0,1-.7.173,1.55,1.55,0,0,1-1.21-.727h-1.155a3.554,3.554,0,0,0,1.091,1.285,2.415,2.415,0,0,0,1.349.4,2.29,2.29,0,0,0,1.645-.653,2.1,2.1,0,0,0,.678-1.549A2.251,2.251,0,0,0,1080.132-147.094Z" transform="translate(-149.381 -86.753)" fill="#fff"/>
    <path id="Path_19" data-name="Path 19" d="M1150.039-141.89a2.413,2.413,0,0,1-.548.508,1.983,1.983,0,0,1-1.568.3,2.241,2.241,0,0,1-1.333-.9l4.353-2.883-.055-.082a3.225,3.225,0,0,0-1.676-1.333,2.972,2.972,0,0,0-2.681.386,2.885,2.885,0,0,0-1.358,2.256,3.192,3.192,0,0,0,.534,2.072,3.226,3.226,0,0,0,1.879,1.345,2.886,2.886,0,0,0,2.446-.465,3.3,3.3,0,0,0,.875-.82,2.914,2.914,0,0,0,.231-.387Zm-3.879-2.04a2.036,2.036,0,0,1,.882-1.211,2.253,2.253,0,0,1,.906-.35,1.975,1.975,0,0,1,.9.058,2.246,2.246,0,0,1,.758.45l-3.392,2.246A2.28,2.28,0,0,1,1146.159-143.93Z" transform="translate(-193.247 -90.312)" fill="#fff"/>
  </g>
</svg>
